<?xml version="1.0" encoding="UTF-8"?>
<svg version="1.1" xmlns="http://www.w3.org/2000/svg" width="500" height="200">
<path d="M0 0 C9.24 0 18.48 0 28 0 C28.33 25.08 28.66 50.16 29 76 C30.98 73.03 32.96 70.06 35 67 C45.67631895 56.32368105 58.51153714 51.7693272 73.5 51.625 C87.51955011 51.77538111 100.86373791 55.86373791 111 66 C118.17039313 74.7965082 121.58635728 83.00718782 121.4375 94.375 C121.42847656 95.20572021 121.41945313 96.03644043 121.41015625 96.89233398 C121.0852943 108.45313309 117.1481715 116.75331866 109 125 C96.31420085 135.98173658 81.29389968 138.06085192 65 137 C51.424004 135.2337734 40.78724075 129.52638215 32 119 C31.01 117.35 30.02 115.7 29 114 C28.67 120.93 28.34 127.86 28 135 C24.0306345 135.02291487 20.0614368 135.04284015 16.09204102 135.05493164 C14.74079614 135.05997057 13.38955674 135.06680177 12.03833008 135.07543945 C10.09979566 135.08752419 8.161222 135.09269828 6.22265625 135.09765625 C5.05484619 135.10289307 3.88703613 135.10812988 2.68383789 135.11352539 C0 135 0 135 -1 134 C-1.15620555 132.58672053 -1.25056173 131.1664541 -1.31640625 129.74609375 C-1.35830078 128.89208984 -1.40019531 128.03808594 -1.44335938 127.15820312 C-1.48267578 126.26037109 -1.52199219 125.36253906 -1.5625 124.4375 C-1.60568359 123.53580078 -1.64886719 122.63410156 -1.69335938 121.70507812 C-1.79978142 119.47021515 -1.90179988 117.23523692 -2 115 C-2.36786621 115.60884033 -2.73573242 116.21768066 -3.11474609 116.8449707 C-8.61561718 125.80698418 -15.78549726 132.84473476 -26 136 C-39.56618857 138.74268941 -50.12789622 136.7840593 -62 130 C-62.33 144.85 -62.66 159.7 -63 175 C-72.57 175 -82.14 175 -92 175 C-92 135.07 -92 95.14 -92 54 C-82.76 54 -73.52 54 -64 54 C-63.67 56.31 -63.34 58.62 -63 61 C-62.45472656 60.60167969 -61.90945313 60.20335937 -61.34765625 59.79296875 C-51.42369727 52.82075142 -43.17830406 50.98860501 -31 52 C-20.9345599 53.7860272 -12.40502657 59.03946697 -6 67 C-4.61942682 69.30764341 -3.31875801 71.6560315 -2 74 C-1.98969254 73.08767105 -1.97938507 72.1753421 -1.96876526 71.23536682 C-1.87096739 62.65609996 -1.76847872 54.07690493 -1.66066074 45.49775791 C-1.60539168 41.086666 -1.55196546 36.67556751 -1.50268555 32.2644043 C-1.45510055 28.01093013 -1.40276014 23.75753911 -1.34705925 19.50416374 C-1.32660902 17.87780757 -1.30790044 16.25142858 -1.29092598 14.62503242 C-1.26694073 12.35483637 -1.23687865 10.08479887 -1.20532227 7.81469727 C-1.18977798 6.52008072 -1.1742337 5.22546417 -1.15821838 3.89161682 C-1 1 -1 1 0 0 Z M-61 83 C-64.00465185 88.2840429 -64.90167638 93.04688663 -64 99 C-62.38252324 104.36270568 -59.66659438 108.10687161 -54.9140625 111.08984375 C-49.90911216 113.46974871 -45.58557651 113.39658427 -40.3125 111.875 C-35.07444778 109.88255673 -32.25207491 106.89969986 -29.1875 102.25 C-27.07138548 96.45852867 -27.10337087 91.3284648 -29.6875 85.6875 C-32.39346854 80.92840149 -35.31445534 78.60198024 -40.5 76.75 C-48.56878295 75.02097508 -55.05126454 77.05126454 -61 83 Z M59.625 82.25 C56.12792864 86.79523989 54.69393679 91.26354338 55.125 97 C55.95842247 101.88688629 57.67673069 106.05411453 61.5390625 109.2890625 C66.4434971 112.40192282 71.56190646 113.5554743 77.296875 112.62890625 C83.19851021 111.03467258 86.72709832 108.14313121 90 103 C91.87894454 97.36316637 91.74720942 91.24162826 89.875 85.625 C86.21803236 80.5052453 82.13979113 77.43697239 76 76 C69.67908442 75.16830058 63.87603808 77.62478742 59.625 82.25 Z " fill="#0048A8" transform="translate(368,8)"/>
<path d="M0 0 C0.96679688 0.00829834 1.93359375 0.01659668 2.9296875 0.02514648 C16.52809217 0.34400093 27.51580389 5.05509299 39.3125 11.4375 C39.75980469 10.88320313 40.20710938 10.32890625 40.66796875 9.7578125 C47.13445147 2.00906348 47.13445147 2.00906348 53.33984375 1.16015625 C59.55949183 0.72424929 63.54489813 2.51123964 68.3125 6.4375 C72.33284523 10.84691089 72.66523047 15.17460421 72.58984375 20.9375 C72.17576021 24.67008406 70.77559966 26.65030828 68.3125 29.4375 C67.508125 30.38625 66.70375 31.335 65.875 32.3125 C61.89622385 35.43868126 57.30712172 35.12128721 52.44921875 34.921875 C47.9960206 34.23420804 45.2726079 32.81665932 42.3125 29.4375 C39.25494277 24.85116415 38.91613332 20.77691112 38.3125 15.4375 C38.02004395 16.03812256 37.72758789 16.63874512 37.42626953 17.25756836 C36.10291675 19.96647833 34.77034815 22.67075024 33.4375 25.375 C32.97730469 26.32052734 32.51710938 27.26605469 32.04296875 28.24023438 C31.59824219 29.13935547 31.15351562 30.03847656 30.6953125 30.96484375 C30.28684082 31.79749756 29.87836914 32.63015137 29.45751953 33.48803711 C28.3125 35.4375 28.3125 35.4375 26.3125 36.4375 C24.28125 35.546875 24.28125 35.546875 21.8125 34.1875 C13.62537914 29.96454542 5.62523569 27.24727126 -3.6875 28.4375 C-7.75968733 29.91829539 -10.79574204 31.43142432 -12.6875 35.4375 C-13.16858188 38.91660224 -13.16858188 38.91660224 -11.6875 42.4375 C-4.715362 48.59332242 4.60331314 52.00782791 12.98632812 55.76171875 C23.37541518 60.57230396 34.98787229 67.78824458 40.3125 78.4375 C40.6425 69.1975 40.9725 59.9575 41.3125 50.4375 C50.5525 50.4375 59.7925 50.4375 69.3125 50.4375 C69.3125 77.1675 69.3125 103.8975 69.3125 131.4375 C60.0725 131.4375 50.8325 131.4375 41.3125 131.4375 C40.9825 124.1775 40.6525 116.9175 40.3125 109.4375 C39.466875 110.96375 38.62125 112.49 37.75 114.0625 C32.14209519 123.33057577 24.28447166 128.44322893 13.8984375 131.4140625 C-8.37608302 136.43169133 -29.04889826 132.85413985 -48.6875 121.4375 C-50.3957869 120.1579253 -52.08500492 118.8473103 -53.6875 117.4375 C-52.77872937 111.54392263 -49.89871252 107.17642057 -46.875 102.125 C-46.34068359 101.19365234 -45.80636719 100.26230469 -45.25585938 99.30273438 C-44.73185547 98.42294922 -44.20785156 97.54316406 -43.66796875 96.63671875 C-43.19254639 95.83065186 -42.71712402 95.02458496 -42.22729492 94.1940918 C-41.7191626 93.6144165 -41.21103027 93.03474121 -40.6875 92.4375 C-36.17198541 92.4375 -35.36346785 93.093991 -31.8125 95.625 C-22.91771451 101.46776964 -12.52539313 106.14676911 -1.6875 104.4375 C2.36965628 103.52897441 5.45670825 102.34515791 8.375 99.25 C9.69261425 95.29715725 10.03667953 92.23505997 8.3125 88.4375 C2.7855575 82.64496072 -5.19589194 79.69829169 -12.35742188 76.41357422 C-24.31015158 70.90121285 -35.33462752 64.11895673 -41.25 51.8125 C-44.68118489 41.70956671 -43.84643033 30.56880087 -39.22265625 21.05078125 C-33.32737618 11.01530449 -24.21966168 4.52174217 -13.15917969 1.02416992 C-8.78409117 -0.01428698 -4.47871802 -0.0498595 0 0 Z " fill="#0048A9" transform="translate(64.6875,11.5625)"/>
<path d="M0 0 C3.28195528 2.21433127 6.20937488 4.41874975 8 8 C11.16504031 6.5671777 13.59071318 4.78654383 16.25 2.5625 C24.49943554 -3.86563159 31.56764554 -4.90388631 42 -4 C50.49999251 -2.56540211 56.08448345 1.40195777 62.3125 7.125 C67.38191246 15.76177679 67.42020919 25.90381414 67.29296875 35.640625 C67.28872391 36.88882019 67.28447906 38.13701538 67.28010559 39.42303467 C67.26346429 43.36558646 67.22583888 47.30760565 67.1875 51.25 C67.17071983 53.94139305 67.15840984 56.63280026 67.14648438 59.32421875 C67.11617496 65.88317715 67.05742315 72.44100036 67 79 C57.43 79 47.86 79 38 79 C37.97421875 75.38804687 37.9484375 71.77609375 37.921875 68.0546875 C37.8834434 64.54972599 37.83828653 61.04491103 37.79248047 57.54003906 C37.76428549 55.10749325 37.74306368 52.67485608 37.72900391 50.2421875 C37.70755492 46.74171218 37.66089157 43.24233369 37.609375 39.7421875 C37.60814636 38.65759247 37.60691772 37.57299744 37.60565186 36.45553589 C37.48758622 30.34464449 37.09481686 26.64986629 33 22 C29.97242185 19.6211886 26.755313 19.64021472 22.96484375 19.74609375 C20.04372208 20.12357468 18.25685476 21.14141372 16 23 C14.05102298 26.12193335 13.73429074 28.57870254 13.68115234 32.22753906 C13.66128265 33.26831604 13.64141296 34.30909302 13.62094116 35.38140869 C13.60938995 36.49820007 13.59783875 37.61499146 13.5859375 38.765625 C13.56657135 39.91415955 13.5472052 41.06269409 13.5272522 42.24603271 C13.46747874 45.9139463 13.42107936 49.58189129 13.375 53.25 C13.33681822 55.73699284 13.29776638 58.22397249 13.2578125 60.7109375 C13.1601417 66.80722297 13.08055355 72.90336806 13 79 C3.43 79 -6.14 79 -16 79 C-16.03738281 75.46023437 -16.07476562 71.92046875 -16.11328125 68.2734375 C-16.15951734 64.8379912 -16.21074357 61.40265295 -16.26245117 57.96728516 C-16.29566646 55.58323759 -16.32370892 53.19911203 -16.34643555 50.81494141 C-16.38004318 47.38410261 -16.43236407 43.95397637 -16.48828125 40.5234375 C-16.49467117 39.46071625 -16.5010611 38.397995 -16.50764465 37.30307007 C-16.61617158 31.8170907 -16.84989193 27.70527324 -20 23 C-23.50187839 19.99838995 -26.60299475 19.50311838 -31.07421875 19.73046875 C-34.19180218 20.16680396 -35.68934689 20.82138421 -38 23 C-41.1238818 29.51931061 -41.465418 36.04746424 -41.51171875 43.16015625 C-41.52966995 44.19063583 -41.54762115 45.22111542 -41.56611633 46.28282166 C-41.6198766 49.54267402 -41.65400482 52.80238287 -41.6875 56.0625 C-41.72070333 58.28582712 -41.75519574 60.50913538 -41.79101562 62.73242188 C-41.87798666 68.15496467 -41.93834942 73.57687508 -42 79 C-51.24 79 -60.48 79 -70 79 C-70 52.27 -70 25.54 -70 -2 C-60.76 -2 -51.52 -2 -42 -2 C-41.67 0.31 -41.34 2.62 -41 5 C-40.5153125 4.60167969 -40.030625 4.20335938 -39.53125 3.79296875 C-27.46714809 -5.7423118 -14.07450355 -6.73932433 0 0 Z " fill="#0047A7" transform="translate(208,64)"/>
</svg>
