<?xml version="1.0" encoding="UTF-8"?>
<svg version="1.1" xmlns="http://www.w3.org/2000/svg" width="500" height="200">
<path d="M0 0 C9.57 0 19.14 0 29 0 C29.33 24.75 29.66 49.5 30 75 C31.98 72.36 33.96 69.72 36 67 C44.65146772 57.60029724 56.1359634 52.24613231 68.91796875 51.6640625 C83.55699514 51.41318653 95.04581342 52.81999174 107 62 C107.86625 62.5775 108.7325 63.155 109.625 63.75 C117.00111732 70.73790062 121.84528219 79.46168033 122.43359375 89.68359375 C122.45657373 91.26806307 122.4575101 92.85299039 122.4375 94.4375 C122.43137695 95.26789795 122.42525391 96.0982959 122.41894531 96.95385742 C122.2575606 103.28820754 121.24261412 108.47307009 118 114 C117.0409375 115.6396875 117.0409375 115.6396875 116.0625 117.3125 C107.89988743 127.94863153 97.18246705 134.63942442 83.94140625 136.68359375 C68.94427869 138.29683058 53.45019988 136.40950455 41.3046875 126.88671875 C36.58165312 122.79020934 33.54033929 119.31050893 30 114 C29.67 120.6 29.34 127.2 29 134 C19.43 134 9.86 134 0 134 C-0.33 127.73 -0.66 121.46 -1 115 C-1.99 116.505625 -2.98 118.01125 -4 119.5625 C-10.65949605 128.99789821 -17.78880202 133.94720051 -29 136.75 C-41.44997928 137.78749827 -50.6284603 136.40824264 -61 129 C-61.33 144.18 -61.66 159.36 -62 175 C-71.57 175 -81.14 175 -91 175 C-91 135.07 -91 95.14 -91 54 C-81.76 54 -72.52 54 -63 54 C-62.67 56.31 -62.34 58.62 -62 61 C-61.52691406 60.60167969 -61.05382812 60.20335937 -60.56640625 59.79296875 C-50.6388677 51.83932676 -40.43551802 50.71586468 -28 52 C-15.04944272 54.63401165 -8.4883841 62.30230842 -1 73 C-0.67 48.91 -0.34 24.82 0 0 Z M-59.375 82.4375 C-62.62227159 87.55819751 -63.720005 91.91479646 -63 98 C-61.22710113 104.04871379 -58.11881711 107.53316477 -53 111 C-47.63620867 112.78793044 -42.11227662 112.69055197 -36.75 110.9375 C-32.07335988 107.64259446 -28.01378286 103.80109083 -27 98 C-26.46931365 91.63176385 -27.36032694 87.31770414 -31 82 C-35.23800214 77.87066458 -38.95164951 76.2014771 -44.8125 75.625 C-50.72955616 75.79278042 -55.29437118 78.24948621 -59.375 82.4375 Z M59 84 C55.92310152 88.61534772 55.46976961 93.75590221 56.36328125 99.22265625 C58.05203573 104.59973339 61.33523663 107.93609861 66 111 C71.26550334 112.75516778 77.09603473 113.07215936 82.359375 111.12890625 C87.03021533 108.45107486 90.43218668 105.23257695 92 100 C92.7425781 94.7555422 92.82612303 89.83325391 90.3125 85.0625 C86.91725495 80.56609439 83.46757351 77.56216386 78 76 C69.82501132 75.2430566 64.34841798 77.88752231 59 84 Z " fill="#F8F8F8" transform="translate(367,8)"/>
<path d="M0 0 C1.0828125 0.8353125 1.0828125 0.8353125 2.1875 1.6875 C2.63480469 1.13320313 3.08210938 0.57890625 3.54296875 0.0078125 C10.15423612 -7.91443113 10.15423612 -7.91443113 16.28515625 -8.51953125 C21.3430845 -8.747518 24.90078569 -8.23525975 29.1875 -5.3125 C33.41822304 -1.11617308 35.32579891 2.53132066 35.5 8.5 C35.44348008 13.3536481 34.46314572 15.96919946 31.1875 19.6875 C25.9614523 24.29139916 22.8800427 25.0507859 16.015625 24.9609375 C11.22374237 24.49763393 8.06558267 22.95613197 4.91015625 19.14453125 C1.91262638 14.48289228 1.95019045 11.78902357 1.1875 5.6875 C-2.1125 12.2875 -5.4125 18.8875 -8.8125 25.6875 C-12.2735997 25.6875 -13.96447081 24.80959232 -17.0625 23.3125 C-26.29949601 19.05019988 -35.44346802 16.60109297 -45.4375 19.875 C-48.23761512 22.01192996 -49.07668505 23.25369691 -49.8125 26.6875 C-49.66173245 29.77823483 -49.19466899 31.23001304 -47.20703125 33.609375 C-44.27369783 36.15510645 -41.10630721 37.73074402 -37.625 39.375 C-36.19078362 40.0768541 -34.75721126 40.78002546 -33.32421875 41.484375 C-32.58349121 41.84595703 -31.84276367 42.20753906 -31.07958984 42.58007812 C-3.01070462 56.29109077 -3.01070462 56.29109077 3.1875 68.6875 C3.5175 59.4475 3.8475 50.2075 4.1875 40.6875 C13.4275 40.6875 22.6675 40.6875 32.1875 40.6875 C32.1875 67.0875 32.1875 93.4875 32.1875 120.6875 C22.9475 120.6875 13.7075 120.6875 4.1875 120.6875 C3.6925 110.2925 3.6925 110.2925 3.1875 99.6875 C2.383125 101.193125 1.57875 102.69875 0.75 104.25 C-5.47354739 114.52102926 -15.32657657 119.52375857 -26.75390625 122.4375 C-50.33597994 126.95922918 -71.18708017 120.77111322 -90.8125 107.6875 C-89.90372937 101.79392263 -87.02371252 97.42642057 -84 92.375 C-83.46568359 91.44365234 -82.93136719 90.51230469 -82.38085938 89.55273438 C-81.85685547 88.67294922 -81.33285156 87.79316406 -80.79296875 86.88671875 C-80.31754639 86.08065186 -79.84212402 85.27458496 -79.35229492 84.4440918 C-78.8441626 83.8644165 -78.33603027 83.28474121 -77.8125 82.6875 C-73.2405523 82.6875 -70.9837531 84.12978722 -67.25 86.4375 C-57.68276777 92.09772765 -48.65684718 96.5183362 -37.359375 94.1796875 C-33.62392653 93.13135196 -31.36357846 92.30537585 -28.75 89.375 C-27.62859392 86.16030257 -27.31937013 84.06896194 -27.8125 80.6875 C-31.17710532 74.83644148 -37.1204428 72.62539346 -42.9375 69.75 C-72.55039591 54.88601404 -72.55039591 54.88601404 -79.1875 39.5 C-81.16514849 27.43634421 -80.15025328 16.65249223 -73.125 6.4375 C-55.42752307 -15.14371251 -22.20934059 -14.59914696 0 0 Z " fill="#FAFAFA" transform="translate(101.8125,21.3125)"/>
<path d="M0 0 C3.5447697 2.12575753 5.92457548 4.27485997 8.5078125 7.50390625 C8.5078125 8.16390625 8.5078125 8.82390625 8.5078125 9.50390625 C9.19746094 8.900625 9.88710937 8.29734375 10.59765625 7.67578125 C20.50907472 -0.75368301 27.50701737 -4.45901907 40.62890625 -3.875 C49.61937864 -2.99677661 56.53867359 0.70763492 62.5078125 7.50390625 C66.67080558 13.74236255 67.63786572 19.97995659 67.62133789 27.41748047 C67.62126236 28.55821014 67.62118683 29.69893982 67.62110901 30.87423706 C67.61594772 32.09007477 67.61078644 33.30591248 67.60546875 34.55859375 C67.60334633 36.44362106 67.60334633 36.44362106 67.60118103 38.36672974 C67.59654324 41.69082565 67.5875743 45.01485167 67.57647705 48.33892822 C67.56620651 51.73766468 67.56161639 55.1364086 67.55664062 58.53515625 C67.54648145 65.19144534 67.52690321 71.84761282 67.5078125 78.50390625 C57.9378125 78.50390625 48.3678125 78.50390625 38.5078125 78.50390625 C38.47042969 74.95253906 38.43304688 71.40117187 38.39453125 67.7421875 C38.34831142 64.30014916 38.29707928 60.85821936 38.24536133 57.41625977 C38.21212083 55.02537642 38.18408621 52.63441477 38.16137695 50.2434082 C38.12781567 46.80516206 38.07549726 43.36763296 38.01953125 39.9296875 C38.01314133 38.86180496 38.0067514 37.79392242 38.00016785 36.69367981 C37.92793583 29.58923189 37.92793583 29.58923189 34.5078125 23.50390625 C31.59371978 20.73521525 29.5654117 20.07256203 25.5703125 20.06640625 C21.93452657 20.16829406 20.6388364 20.42368754 17.4453125 22.37890625 C14.5580038 25.54563192 14.37339544 27.31085832 14.30249023 31.50439453 C14.28254501 32.54532257 14.26259979 33.58625061 14.24205017 34.65872192 C14.22533768 35.78583588 14.20862518 36.91294983 14.19140625 38.07421875 C14.17062515 39.22558319 14.14984406 40.37694763 14.12843323 41.5632019 C14.06289585 45.25170765 14.00403322 48.94028628 13.9453125 52.62890625 C13.90213127 55.12500763 13.85851712 57.62110155 13.81445312 60.1171875 C13.7063932 66.24602005 13.60735052 72.37490559 13.5078125 78.50390625 C3.9378125 78.50390625 -5.6321875 78.50390625 -15.4921875 78.50390625 C-15.51796875 74.96414062 -15.54375 71.424375 -15.5703125 67.77734375 C-15.60874572 64.34187939 -15.65390206 60.90656445 -15.69970703 57.47119141 C-15.72789945 55.08714962 -15.74912253 52.70301467 -15.76318359 50.31884766 C-15.78463619 46.88786173 -15.83130114 43.45799401 -15.8828125 40.02734375 C-15.88404114 38.9646225 -15.88526978 37.90190125 -15.88653564 36.80697632 C-16.00586627 30.75176969 -16.39759631 27.08497431 -20.4921875 22.50390625 C-24.72771606 19.68022054 -28.51696064 19.83736868 -33.4921875 20.50390625 C-36.42641945 22.30037479 -37.96424105 23.44801335 -39.4921875 26.50390625 C-39.61106706 28.16789908 -39.66930694 29.836399 -39.69750977 31.50439453 C-39.71745499 32.54532257 -39.73740021 33.58625061 -39.75794983 34.65872192 C-39.77466232 35.78583588 -39.79137482 36.91294983 -39.80859375 38.07421875 C-39.82937485 39.22558319 -39.85015594 40.37694763 -39.87156677 41.5632019 C-39.93710415 45.25170765 -39.99596678 48.94028628 -40.0546875 52.62890625 C-40.09786873 55.12500763 -40.14148288 57.62110155 -40.18554688 60.1171875 C-40.2936068 66.24602005 -40.39264948 72.37490559 -40.4921875 78.50390625 C-50.0621875 78.50390625 -59.6321875 78.50390625 -69.4921875 78.50390625 C-69.4921875 52.10390625 -69.4921875 25.70390625 -69.4921875 -1.49609375 C-59.9221875 -1.49609375 -50.3521875 -1.49609375 -40.4921875 -1.49609375 C-40.1621875 0.48390625 -39.8321875 2.46390625 -39.4921875 4.50390625 C-38.60466797 3.88902344 -38.60466797 3.88902344 -37.69921875 3.26171875 C-36.90902344 2.72289063 -36.11882812 2.1840625 -35.3046875 1.62890625 C-34.13873047 0.82839844 -34.13873047 0.82839844 -32.94921875 0.01171875 C-22.96466556 -6.11552693 -10.25727181 -4.90504415 0 0 Z " fill="#F7F7F7" transform="translate(207.4921875,63.49609375)"/>
</svg>
